<svg version="1.1" preserveAspectRatio="none" xmlns="http://www.w3.org/2000/svg" width="500" height="500" viewBox="0 0 500 500"><rect width="100%" height="100%" fill="#F5E7E0" fill-opacity="1"/><svg viewBox="43.075 150.697 382.0836 127.2181" width="333" height="110.87528305323758" x="83.5px" y="194.5624px" xmlns="http://www.w3.org/2000/svg" xmlns:xlink="http://www.w3.org/1999/xlink" preserveAspectRatio="none"><defs></defs><style>.companyName {fill:#C66358;fill-opacity:1;}.icon1 {fill:#C66358;fill-opacity:1;}.icon2 {fill:#E3BBA7;fill-opacity:1;}.icon3 {fill:#985A55;fill-opacity:1;}.icon3-str {stroke:#985A55;stroke-opacity:1;}</style><g opacity="1" transform="rotate(0 176.8043 150.697)">
<svg width="114.6251" height="61.2181" x="176.8043" y="150.697" version="1.1" preserveAspectRatio="none" viewBox="1.6909866333007812 24.553030014038086 96.57908630371094 51.580299377441406">
  <g transform="matrix(1 0 0 1 0 0)" class="icon1"><path d="M15.9,48.3c1.8,0.3,3.4-0.2,5-0.1c1.2,0,2.4,0.1,3.7,0.3c1.6,0.2,3.3,0.2,4.9,0.1c5.1-0.5,10.1-0.2,15.2-0.3  c5.9-0.1,11.8-0.3,17.7-0.7c2.2-0.1,4.4,0,6.6,0.4c0.9,0.2,1.3,0,1.8-0.7c1.1-1.7,2.3-3.2,3.6-4.7c0.9-1,1.3-2.2,2-3.3  c0.8-1.4,2-2.7,3-4c1.2-1.5,2.4-2.9,3.5-4.3c2.3-2.9,5.3-4.9,8.8-6.2c1.9-0.7,4.7,0.2,5.6,1.3c1.4,1.7,1.3,2.9-0.4,4.7  c-1.3,1.3-3,2.1-4.9,2.2c-1,0.1-1.8,0.5-2.5,1.2c-5,5.3-9.4,11-13.3,17.2c-0.7,1.1-1.4,2.2-2.2,3.2c-1,1.3-0.8,2.6-0.2,4  c0.2,0.5,0.4,1,0.2,1.6c-0.3,0.8-0.1,1.7,0,2.5c0.4,2.9,0.2,5.7-0.4,8.5c-0.3,1.8-1.5,3-3,3.8c-0.3,0.2-0.6,0.1-1,0.1  c-2.2,0-4.4-0.1-6.6,0.2c-2.4,0.4-4.8-0.2-7.1,0.3c-1.9,0.4-3.8,0.8-5.7,0.3c-0.1,0-0.2,0-0.3,0c-1.8,0.5-3.6-0.1-5.5-0.1  c-1.5,0-2.5-1.1-3.4-2.2c-0.7-0.7-1-1.7-1.7-2.5c-1-1-1.6-1-2.6-0.2c-0.9,0.7-1.7,1.4-2.3,2.5c-0.3,0.6-0.8,0.8-1.3,1.2  c-1.9,1.4-3.9,0.5-5.9,0.6c-2.4,0-4.8-0.3-7.2,0c-1.2,0.1-2.4,0-3.5-0.1c-3-0.3-6.1,0.1-9.1,0.4c-2,0.2-3.3-1-4.7-1.8  c-0.5-0.3-0.4-1.1-0.4-1.7c0.2-2.7-0.2-5.4-0.1-8.1c0.1-1.9-0.2-3.8-0.4-5.7c-0.2-1.8-0.1-3.5,0.1-5.3c0.3-2,1.2-3.2,2.6-4.6  c1.9-1.9,3.8-3.7,5.5-5.7c3.2-3.6,6.6-7,10.2-10.1c1.1-1,2.1-2,3.2-3c1.7-1.5,3.7-2.6,5.6-3.7c0.7-0.4,1.6-0.7,2.4-0.7  c1.7,0.1,3.5,0,5.2,0.5c1.7,0.4,2.3,1,2.4,2.4c0.1,1.9-0.5,3.3-1.9,3.8c-1.5,0.5-3,1-4.6,0.9c-1.5-0.1-2.8,0.3-3.9,1.4  c-1.2,1.2-2.5,2.2-3.5,3.7c-1.1,1.7-2.7,3-4.1,4.4c-1.1,1.1-2.2,2.3-3.2,3.5C17,46.3,16.5,47.3,15.9,48.3z M57.5,67.9  c0,0.7,0.5,0.7,1,0.7c0.1,0,0.3-0.1,0.3-0.3c-0.2-0.5-0.6-0.6-1.1-0.5C57.7,67.8,57.6,67.8,57.5,67.9c-0.2-1-0.2-1-1.3-1.5  C56.6,67,56.8,67.6,57.5,67.9z M61.1,68.4c1.2,0.4,2.4,0.4,3.5-0.4c-0.4-0.7-0.8-1-1.5-0.8c-0.3,0.1-0.6,0.2-1,0.1  C61,67.3,61,67.3,61.1,68.4c-0.3-0.2-0.5-0.8-1-0.3C60,68.2,60,68.3,60,68.4C60.3,69,60.7,68.5,61.1,68.4z M58,56  c0,0.4-0.6,0.5-0.6,1.1c1.2-0.8,2.3-1.5,3.4-2.3c-0.8-0.4-1.2,0.2-1.7,0.4c0-0.5-0.4-0.5-0.7-0.5c-1.9-0.3-3,1.1-4.1,2.2  c0.9-0.2,1.5-1,2.4-1.2c0.2,0.4-0.4,0.4-0.2,0.8C57,56.4,57.4,55.8,58,56z M74.1,50.2c1-0.5,1.6-1.2,1.6-2.3c0-0.7,0.3-1.4,1.2-1.6  c0.5-0.1,0.7-0.5,1-0.9c0.9-1.2,1.9-2.3,2.8-3.5c1.4-1.8,2.7-3.6,4.1-5.3c0.2-0.2,0.4-0.4,0.3-0.7c-0.1-0.9,0.4-1.3,1-1.8  c0.7-0.5,1.5-1,2.1-1.7c0.8-0.8,1.7-1.2,2.8-1.2c2.3,0.1,3.4-1.6,4.5-3.2c0.1-0.1,0.1-0.2,0.1-0.3c0.1-0.4-0.1-0.6-0.4-0.5  c-1.8,0.3-3.9-0.5-5.5,1c-0.2,0.2-0.6,0.4-0.9,0.3c-0.7-0.1-1,0.4-1.4,0.8c-0.9,0.9-1.8,1.7-2.6,2.6c-0.9,0.9-2,1.8-2.5,3  c-0.5,1.1-1.2,1.9-1.9,2.9c0,0,0.1,0.2,0.1,0.3c0.4-0.1,0.5-0.4,0.8-0.6c2.3-2.4,4.5-4.8,7-7.1c0.6-0.6,0.6-0.6,1.7-0.6  c-0.4,0.4-0.8,0.7-1.1,1c-2.7,2.6-5.6,5-7.8,8.2c-0.1,0.2-0.3,0.4-0.5,0.3c-0.7-0.5-0.9,0.1-1.2,0.5c-2.4,2.5-4.3,5.5-6.5,8.2  c-0.1,0.2-0.3,0.6-0.2,0.6c0.7,0.5,0.2,0.7-0.2,0.9c-0.2,0.1-0.4,0.3-0.3,0.5c0.1,0.2,0.4,0.4,0.5,0.4  C73.3,50.2,73.8,49.8,74.1,50.2c-0.8,0.5-1.6,1.1-1.2,2.6C73.3,51.8,74,51.1,74.1,50.2z M15.6,41.8c1.3-0.8,2.5-1.6,3.5-2.8  c1.4-1.7,3.1-2.9,4.9-4.1c-4.5,5.2-10.2,9-15.2,13.9c3.1,0,3.1,0,4.9-1.7c0.4-0.4,0.5-0.8,0.6-1.3c0-0.1,0.1-0.1,0.2-0.1  c0.6,0.1,0.9-0.5,1.2-0.8c3.5-3.2,6.5-6.9,10.2-9.9c0.4-0.3,0.6-0.8,1-1.2c1.4-1.5,3-2.6,5.2-2.9c1-0.1,2.1-0.5,3.1-0.8  c0.9-0.3,1.3-1,1.8-1.7c0.4-0.6,0.2-1.1-0.6-1.3c-1.2-0.2-2.3-0.3-3.4,0.3c-2.6,1.5-4.8,3.4-6.9,5.5c-0.2,0.2-0.3,0.6-1.1,0.3  c1.7-3.1,4.9-4.3,7.7-6.2c-1.1-0.5-2-0.3-2.8,0.1c-0.7,0.3-1.4,0.7-2,1.3c-2.1,2-4.2,4.1-6.5,5.9c-2.5,2-4.2,4.6-6.4,6.8  c-0.4,0.1-0.7,0.4-0.8,0.9c0.5-0.1,0.8-0.3,1-0.7C15.5,41.1,15.5,41.5,15.6,41.8c-0.6,0.1-0.9,0.5-1.4,1.1  C15,42.7,15.3,42.3,15.6,41.8z M56.8,70.9c0.9-0.8,2-0.1,2.8-0.9c-2.3-0.5-4.6,0.3-6.9-0.3c-0.2,0-0.3,0-0.5,0  c-1.5,0.3-3.1,0-4.6-0.1c-0.5,0-0.9-0.3-1.3-0.7c-1.2-1.3-1.7-2.7-1.5-4.4c0.3-1.7,0.2-3.5-0.2-5.2c-0.3-1.2-0.1-2.3,0.2-3.5  c0.2-0.9,0.8-1.4,1.6-1.8c2.3-1,4.7-1,7.1-0.8c1.6,0.1,3.1,0.3,4.7,0.2c1.2,0,2.4-0.1,3.5,0c3,0.4,5.8,0,8.7-0.8  c0-0.3,0-0.6-0.1-0.8c-0.5-0.7-0.4-1.8-1.4-2.1c-1.5-0.5-3.1-0.2-5-0.2c1.4,1,2.8,0.8,4.1,1.2c-0.6,0.5-1.3,0.1-1.7,0.6  c-0.5,0.6-1.2,0.5-1.9,0.5c-1.7-0.1-3.4,0-5.1,0c-3.2,0.1-6.5,0.2-9.7,0.3c3.5-0.9,7.1-0.3,10.6-1c-0.2-0.6-0.7-0.7-1.2-0.7  c-1.3-0.1-2.7-0.2-4-0.2c-0.2,0-0.2-0.1-0.2-0.2c0.2-0.2,0.6,0.1,0.8-0.4c-0.7,0-1.2,0-1.8,0c-3.8,0.3-7.7,0.5-11.5,0.8  c-0.9,0.1-1.8-0.3-2.8-0.2c-2.7,0.4-5.5,0.6-8.2,0.3c-0.7-0.1-1.3-0.5-2.1-0.4c-2,0.3-3.9,0-5.9,0.4c-1.8,0.3-3.5,0.7-5.3,0.7  c-0.2,0-0.6,0-0.6,0c0-0.8-0.7-0.6-1.1-0.7c-0.6-0.1-1.1-0.1-1.7,0c-0.4,0-0.9,0.2-1.3,0c-1.6-0.5-3.3-0.2-4.9-0.3  c-0.3,0-0.7-0.1-0.9,0.2c-1,1.3-2.4,2.2-3.7,3.1c-0.2,0.1-0.4,0.3-0.3,0.5c0.4,0.6-0.1,1.1-0.2,1.6c-0.2,1.4-0.4,2.7-0.1,4.1  c0.8,0,1-0.9,1.7-0.8c0.1,0.2,0,0.3-0.1,0.5c-0.6,0.6-0.6,0.6-0.5,1.7c0,0.3-0.1,0.4-0.3,0.6c-0.3,0.3-0.8,0.7-0.7,1.1  c0.3,1.1-0.1,2.2,0.2,3.3c0.3,1.3,0.7,2.7-0.2,3.9c0.5,0.2,0.9-0.2,1.2,0.3c-0.2,0.3-0.6,0.6-0.6,0.8c0.2,0.4,0.7,0.8,0.3,1.4  c0.1,0.1,0.3,0.2,0.4,0.2c0.3,0,0.6-0.1,0.8,0c1.8,1.1,3.8,0.7,5.7,0.6c0.7,0,1.4-0.1,2.2,0c2.2,0.2,4.5,0.7,6.7,0.3  c2.8-0.4,5.6-0.5,8.4-0.4c1.3,0.1,2.4-0.3,3.4-1.2c1.4-1.2,2.7-2.3,4.3-3.2c0.6-0.3,1.1-0.6,1.7-0.3c1.7,0.7,3.5,1.4,4.8,2.7  c1.5,1.6,3.3,2.2,5.4,2.2c2.2,0,4.4-0.1,6.6,0.1c1.6,0.2,3.1-0.1,4.7-0.5c0.8-0.2,1.5-0.2,2.3,0.1c0.4,0.2,0.7,0.3,1.1,0.2  c2-0.2,3.9-0.1,5.9-0.2c1.4-0.1,2.4-1.1,2.5-2.5c0.1-1.2,0-2.5,0-3.7c0-0.6-0.3-0.7-0.7-0.6c-0.5,0.1-1,0.2-1.5,0.3  c-1.1,0.1-1.9,0.5-2.1,1.7c1,0.5,2.3-0.2,3.2,1C65.9,69.8,61.5,70.8,56.8,70.9z M66.7,57c-0.1,2,0.2,3.7,0.3,5.5  c0.1,1.7,0.5,1.9,2.2,1.4c0.3-0.1,0.5-0.3,0.7-0.4c0.4-0.2,1-0.3,1.1,0.2c0.2,0.5-0.5,0.5-0.8,0.6c-0.2,0.1-0.4,0-0.4,0.4  c0.5,0,1,0.4,1.6,0.3c0.3-2.8,0.1-5.6-0.4-8.4C69.5,57.1,68.2,57,66.7,57z M65.6,54.2c0.3,0.5,0.7,1.1,0.7,1.9  c0,0.4,0.3,0.7,0.7,0.6c1.2-0.1,2.3-0.3,3.5-0.5c0.8-0.1,0.6-0.8,0.7-1.4c0-0.5-0.4-0.6-0.8-0.6C68.7,54.2,67.2,54.2,65.6,54.2z   M64.5,63.4c0.2,0.4,0.3,0.6,0.4,0.8c0.2,0.4,0.3,0.9,1,0.6c0.5-0.2,0.3-0.6,0.2-1c-0.3-1.1-0.4-2.3-0.4-3.5c0-0.4,0.2-0.8-0.3-1.1  c-0.9,0.4-1.7,0.8-2.3,1.8c0.9,0.4,1.4-0.5,2.1-0.5c-0.1,1,0.2,2,0.5,3.1C65.3,63.5,65,63.5,64.5,63.4z M70.6,65.6  c-1.1-0.3-1.7-0.9-2.6-0.5c-0.3,0.2-0.6,0.3-0.5,0.7c0.1,0.4,0.4,0.5,0.8,0.4C68.9,66,69.6,65.9,70.6,65.6z M4,52.6  c1.6-0.8,1.6-0.9,1.9-2C5.2,51.2,4.1,51.3,4,52.6z M48.1,57c1.2-0.2,1.9-0.8,2.7-1.6C49.5,55.2,48.9,56,48.1,57z M64.4,65.1  c-0.1-0.6-0.4-0.8-0.7-1.1c-0.4-0.4-0.8,0-1,0.3c-0.3,0.4,0.2,0.6,0.4,0.7C63.6,65.2,64,65.2,64.4,65.1z M56.8,68.4  c0-0.5-0.4-0.6-0.7-0.8c-0.3-0.2-0.8-0.8-1.1-0.2c-0.3,0.5,0.3,0.9,0.7,1.1C56,68.6,56.4,68.6,56.8,68.4z M51.9,68.1  C51.6,67.7,51,68,51,67.4c0-0.2-0.3-0.3-0.5-0.1c-0.2,0.1-0.4,0.3-0.4,0.5c0,0.2,0.2,0.4,0.4,0.4C50.9,68.3,51.3,68.5,51.9,68.1z   M46.2,66.3c0,0.8,0.4,1.2,1.1,1.4c0.1,0,0.2-0.1,0.3-0.1c0.1-0.1,0.1-0.3-0.1-0.4C47.1,66.8,46.7,66.5,46.2,66.3z M63.6,59.3  c0.7-0.3,1.4-0.4,1.8-1.3C64.4,57.9,64.1,58.8,63.6,59.3z M66.5,66.1c0-0.3-0.1-0.6-0.4-0.6c-0.4,0-0.7,0.2-0.8,0.7  c0,0.2,0.1,0.4,0.4,0.4C66.1,66.6,66.5,66.6,66.5,66.1z M47.1,56.1c-1.2-0.5-1.3-0.5-1.2,1C46.3,56.8,46.8,56.6,47.1,56.1z   M45.9,60.6c0.4-0.6,1-0.8,0.7-1.4c0-0.1-0.5-0.2-0.6-0.1C45.4,59.4,45.7,59.9,45.9,60.6z M61.3,66.3c-0.1-0.3-0.3-0.4-0.6-0.4  c-0.3,0-0.7,0.2-0.6,0.6c0,0.3,0.3,0.5,0.6,0.4C60.9,66.8,61.2,66.6,61.3,66.3z M60.9,55.6c0.7-0.1,1.2,0.1,1.6-0.4  c0-0.1-0.1-0.3-0.2-0.4C61.6,54.5,61.4,55.1,60.9,55.6z M57.8,59.8c0.7-0.1,1.2-0.4,1.8-1.2C58.7,58.9,58.2,59.3,57.8,59.8z   M8.5,47.9c-0.7,0.4-1.3-0.3-1.6,0.5c0,0.1,0,0.3,0.1,0.3C7.5,48.8,8.1,48.8,8.5,47.9z M61.3,61.1c-1.1,0.2-1.1,0.2-1.4,1  C60.6,62.1,60.9,61.7,61.3,61.1z M58.8,61.4c0.8-0.3,1.3-0.5,1.5-1.2C59.7,60.4,59.2,60.5,58.8,61.4z M62.9,63.3  c0.1-0.3-0.1-0.5-0.2-0.5c-0.4,0-0.7,0.2-1,0.5c-0.1,0.1,0,0.3,0.2,0.4C62.4,63.9,62.7,63.7,62.9,63.3z M63.9,56.4  c-0.1-0.5-0.1-1.1-0.9-1.5C63.2,55.7,63.6,56,63.9,56.4z M62.1,62.1c-0.8-0.1-1.1,0.3-1.4,1C61.4,63,61.8,62.7,62.1,62.1z   M59.2,66.9c-0.3,0-0.5,0.2-0.5,0.5c0,0.2,0.2,0.4,0.5,0.4c0.3,0,0.5-0.2,0.5-0.5C59.7,67.1,59.5,66.9,59.2,66.9z M57.8,63.9  c0.4-0.1,0.7-0.2,0.7-0.6c0-0.2-0.1-0.3-0.3-0.3c-0.4,0-0.8,0.1-0.7,0.6C57.5,63.8,57.7,63.8,57.8,63.9z M14.1,43  c-0.8,0.4-1.2,0.8-1.4,1.3C13.1,43.9,13.6,43.8,14.1,43z M56.5,64.9c0.3-0.1,0.5-0.2,0.6-0.5c0-0.2-0.2-0.3-0.3-0.2  c-0.3,0-0.5,0.2-0.5,0.5C56.2,64.8,56.3,65,56.5,64.9z M62,65.1c-0.3,0-0.4,0.1-0.4,0.3c0,0.3,0.2,0.5,0.5,0.6  c0.2,0,0.5-0.1,0.4-0.4C62.5,65.2,62.2,65.1,62,65.1z M64.1,51.1c0.5,0.1,1.1,0.4,1.7,0C65.2,50.8,64.7,50.9,64.1,51.1z M56.1,63.2  c-0.2,0-0.2,0-0.3,0.1c-0.3,0.1-0.6,0.2-0.7,0.6c0,0.1,0.1,0.2,0.2,0.2c0.3,0,0.5-0.2,0.7-0.4C56.2,63.6,56.1,63.4,56.1,63.2z   M66.8,69.3c0.1-0.1,0.3-0.2,0.5-0.3c-0.2,0-0.3-0.1-0.5-0.1c-0.2,0-0.4,0-0.4,0.2C66.4,69.3,66.5,69.3,66.8,69.3z M64.9,56.1  c0-0.1,0.1-0.1,0.1-0.2c0.1-0.3,0.1-0.5-0.1-0.8c-0.1-0.1-0.3-0.2-0.4,0c-0.1,0.2,0,0.4,0.1,0.6C64.6,55.8,64.7,55.9,64.9,56.1z   M57.6,62.5c-0.1-0.1-0.1-0.2-0.2-0.3c-0.3-0.1-0.5,0.1-0.6,0.3c0,0.1,0.1,0.2,0.1,0.3C57.2,62.9,57.5,62.8,57.6,62.5z M64.7,62.1  c-0.1-0.3-0.2-0.5-0.4-0.4c-0.2,0-0.3,0.2-0.2,0.4c0,0.2,0.3,0.4,0.5,0.4C64.6,62.4,64.6,62.1,64.7,62.1z M59.2,65.5  c0,0.2,0.1,0.3,0.3,0.3c0.2-0.1,0.4-0.2,0.4-0.5c0,0-0.2-0.1-0.3-0.1C59.5,65.1,59.2,65.2,59.2,65.5z M53,68.3  c0.7,0.1,1,0.4,1.4-0.1C53.9,67.8,53.6,68,53,68.3z M58.9,64.1c-0.2,0.1-0.5,0.2-0.5,0.5c0,0,0.2,0.1,0.3,0.1c0.3,0,0.5-0.2,0.6-0.4  C59.3,64.2,59.1,64.1,58.9,64.1z M63,59.9c0-0.2-0.2-0.3-0.4-0.2c-0.2,0-0.4,0.1-0.3,0.4c0.1,0.2,0.2,0.2,0.4,0.2  C62.9,60.2,63,60.1,63,59.9z"></path><path d="M14.3,45.7c-0.7,0.3-1.1,1.1-1.9,1.4c0.4-1.2,2.2-3,4.2-3.9c-0.7,1-1.7,1.4-2.1,2.4C14.4,45.6,14.4,45.6,14.3,45.7z"></path><path d="M30.1,61.8c-0.1,2.1,0.2,4.3-0.4,6.4c-0.2,0.6-0.3,1-1,1.1c-1.4,0.3-2.7,1-4.1,0.9c-1.3-0.1-2.5,0.1-3.8,0.1  c-3.5,0-7,0.1-10.4,0c-2.4-0.1-3.4-0.7-3.6-3.5c-0.2-3.5-0.2-7,0.2-10.4c0.1-0.8,0.4-1.2,1.1-1.6c1.1-0.6,2.3-0.9,3.6-0.9  c3.3,0.1,6.6,0.1,9.9,0.1c1.1,0,2.2,0,3.4-0.1c1-0.1,2.1-0.2,3,0.3c1.4,0.8,2.3,1.9,2.2,3.7C30,59.2,30.1,60.5,30.1,61.8z   M14.9,54.8c-1.5-0.2-2.9-0.2-4.4,0c-1.6,0.3-2,0.8-2.3,2.4c-0.4,2-0.3,4-0.5,6c-0.1,1.6,0,2.9,1.1,4.2c0.5,0.6,1,1,1.7,1.1  c3.1,0.4,6.3,0.2,9.4,0.4c1.2,0.1,2.6-0.2,3.8-0.3c0.4,0,0.9-0.2,1.3-0.4c0.8-0.4,1.7-0.7,2.6-0.6c0.8,0.1,1-0.2,1.2-1  c0.7-2.9,0-5.8-0.4-8.7c-0.3-2.2-0.8-3.2-3.9-3.3C21.4,54.7,18.2,54.8,14.9,54.8z"></path><path d="M54.6,72.7C59.3,71.9,64,71,68.8,71C64.1,71.8,59.4,72.4,54.6,72.7z"></path><path d="M6.6,54c-0.6,1-1,2.2-2.3,2.6C4.2,54.9,5.6,54.6,6.6,54z"></path><path d="M63.7,52.3c1,0,2.1,0,3.1,0C65.8,52.7,64.8,52.8,63.7,52.3z"></path><path d="M3.7,58.4c0.3-0.6,0.7-0.8,1.6-1.2C4.8,58,4.4,58.3,3.7,58.4z"></path><path d="M77.5,43.5c-0.1,0.6-0.4,1-1,1.4C76.6,44.1,77,43.8,77.5,43.5z"></path><path d="M76.2,45.6c-0.1,0.2-0.2,0.5-0.6,0.5c-0.2,0-0.2-0.2-0.1-0.4c0.1-0.2,0.3-0.5,0.6-0.4C76.3,45.3,76.3,45.5,76.2,45.6z"></path><path d="M67.2,57.9c1-0.2,1.6-0.2,2.5-0.1C68.9,58.4,68.2,58.3,67.2,57.9z"></path><path d="M68.4,63c0.4-0.6,0.8-0.6,1.5-0.4C69.5,63,69,63.1,68.4,63z"></path><path d="M69.4,59.5c-0.4,0.3-0.7,0.5-1.2,0.2C68.6,59.4,68.9,59.4,69.4,59.5z"></path><path d="M8.3,63.6c2.9-3.1,6.3-5.6,10.2-7.3c0.4,0.3,0.1,0.3,0,0.4C18.3,56.9,18.2,57,18,57c-2.8,1.5-5.4,3.2-7.7,5.3  C9.8,62.9,9.1,63.5,8.3,63.6z"></path><path d="M22.1,58.2c-2.6,1.3-4.9,3.2-7.6,4.6C15.8,61.3,20.3,58.5,22.1,58.2z"></path><path d="M9.4,58.8c0.6-1.1,1.4-1.8,2.7-2C11.4,57.7,10.4,58.4,9.4,58.8z"></path><path d="M23.9,67.4c0.2-0.4,0.4-0.6,0.8-0.5c0.1,0,0.2,0.2,0.1,0.2C24.7,67.4,24.4,67.5,23.9,67.4z"></path><path d="M11.1,59.4c-0.3,0.4-0.6,0.7-1.2,0.7C10.2,59.7,10.5,59.5,11.1,59.4z"></path><path d="M17.2,65.5c0,0.2-0.1,0.3-0.3,0.3c-0.2,0-0.4,0.1-0.5-0.1c0-0.1,0.2-0.2,0.3-0.2C16.9,65.3,17.1,65.3,17.2,65.5z"></path></g>
</svg>
</g><g opacity="1" transform="rotate(0 43.075 237.9151)">
<svg width="382.0836" height="40" x="43.075" y="237.9151" version="1.1" preserveAspectRatio="none" viewBox="2.4 -27.24 265.9304 27.839999999999996">
  <g transform="matrix(1 0 0 1 0 0)" class="companyName"><path id="id-D6z1nYkh13" d="M3.20 0L3.20 0L2.40 0L2.40-9.32L3.20-9.32Q3.20-5.56 5.90-2.92Q8.60-0.28 12.48-0.28L12.48-0.28Q14.08-0.28 15.06-1.22Q16.04-2.16 16.04-3.72L16.04-3.72Q16.04-5.48 13.76-6.72L13.76-6.72Q12.52-7.36 9.48-8.74Q6.44-10.12 5.20-11.08L5.20-11.08Q2.72-13 3.02-16.16Q3.32-19.32 5.40-21.06Q7.48-22.80 10.10-22.80Q12.72-22.80 14.82-22.10Q16.92-21.40 17.20-21.40L17.20-21.40Q18-21.40 18-22.80L18-22.80L18.80-22.80L18.80-15.48L18-15.48Q18-18.36 15.88-20.18Q13.76-22 10.44-22L10.44-22Q8.96-22 8.12-21.14Q7.28-20.28 7.28-19.24Q7.28-18.20 7.56-17.64Q7.84-17.08 8.54-16.62Q9.24-16.16 9.76-15.88Q10.28-15.60 11.42-15.12Q12.56-14.64 13-14.44L13-14.44Q15.20-13.44 15.60-13.26Q16-13.08 16.76-12.68Q17.52-12.28 17.90-11.96Q18.28-11.64 18.88-11.16Q19.48-10.68 19.76-10.18Q20.04-9.68 20.32-9.04L20.32-9.04Q20.88-7.76 20.72-6.04L20.72-6.04Q20.40-2.80 18.30-1.10Q16.20 0.60 12.64 0.60L12.64 0.60Q9.44 0.60 6.28-1.04L6.28-1.04Q5.20-1.60 4.68-1.60L4.68-1.60Q3.20-1.60 3.20 0Z M35.92-17.60L31.28-17.60L31.28-7.84Q31.28-4.40 31.56-3.66Q31.84-2.92 32.16-2.40L32.16-2.40Q32.76-1.36 34.26-1.36Q35.76-1.36 36.36-1.76L36.36-1.76L36.36-0.96Q34.44 0.40 32.16 0.40L32.16 0.40Q28.80 0.40 27.04-1.20Q25.28-2.80 25.28-6.92L25.28-6.92L25.28-17.60L22.32-17.60L22.32-18.40L25.28-18.40Q27.20-18.72 28.68-20.26Q30.16-21.80 30.72-24.52L30.72-24.52L31.28-24.52L31.28-18.40L35.92-18.40L35.92-17.60Z M48.36-0.80L48.36 0L38.36 0L38.36-0.80L40.36-0.80L40.36-17.60L38.36-17.60L38.36-18.40L46.36-18.40L46.36-13.64Q46.72-15.60 47.66-16.84Q48.60-18.08 49.74-18.48Q50.88-18.88 51.94-18.88Q53-18.88 53.98-18.50Q54.96-18.12 55.44-16.98Q55.92-15.84 55.48-14.70Q55.04-13.56 53.94-13.08Q52.84-12.60 51.92-12.96Q51-13.32 50.60-13.94Q50.20-14.56 50.04-15.12L50.04-15.12Q49.64-16.60 48.96-16.60L48.96-16.60Q48.20-16.60 47.28-13.98Q46.36-11.36 46.36-8.44L46.36-8.44L46.36-0.80L48.36-0.80Z M75.36-8L75.36-8L63.28-8Q63.68-0.96 68.76-0.96L68.76-0.96Q70.12-0.96 71.86-1.60Q73.60-2.24 74.40-3.40L74.40-3.40L74.96-3Q74.08-1.52 71.96-0.56Q69.84 0.40 67.74 0.40Q65.64 0.40 63.96-0.02Q62.28-0.44 60.68-1.44Q59.08-2.44 58.18-4.44Q57.28-6.44 57.28-9.28L57.28-9.28Q57.28-14.12 59.96-16.46Q62.64-18.80 66.46-18.80Q70.28-18.80 72.82-16.24Q75.36-13.68 75.36-8ZM63.24-9.24L63.24-8.80L69.76-8.80Q69.76-12.48 68.98-15.24Q68.20-18 66.48-18Q64.76-18 64-15.34Q63.24-12.68 63.24-9.24L63.24-9.24Z M97.68-0.80Q97.28-0.40 96.16-0.10Q95.04 0.20 93.56 0.20L93.56 0.20Q90.28 0.20 89.44-1.76L89.44-1.76Q87.44 0.32 83.32 0.32L83.32 0.32Q81.12 0.32 79.70-0.70Q78.28-1.72 78.28-3.72L78.28-3.72Q78.28-6.40 80.36-7.86Q82.44-9.32 87.64-9.92L87.64-9.92L89.24-10.12L89.24-12.08Q89.24-15.56 88.72-16.76Q88.20-17.96 86.66-17.96Q85.12-17.96 84.68-17.54Q84.24-17.12 84.36-16.58Q84.48-16.04 84.76-15.16Q85.04-14.28 85.04-13.76L85.04-13.76Q85.04-12.52 84.18-11.66Q83.32-10.80 82.10-10.80Q80.88-10.80 80-11.66Q79.12-12.52 79.12-13.76L79.12-13.76Q79.12-15.80 81.22-17.26Q83.32-18.72 87.50-18.72Q91.68-18.72 93.46-17.08Q95.24-15.44 95.24-11.28L95.24-11.28L95.24-4.08Q95.24-1.96 95.76-1.42Q96.28-0.88 97.68-1.20L97.68-1.20L97.68-0.80ZM83.84-4.52Q84.04-3 84.96-2.18Q85.88-1.36 87.10-1.36Q88.32-1.36 89.24-2.56L89.24-2.56L89.24-9.36L87.80-9.16Q85.96-8.92 84.82-7.76Q83.68-6.60 83.84-4.52L83.84-4.52Z M133.68-11.12L133.68-0.80L135.68-0.80L135.68 0L125.68 0L125.68-0.80L127.68-0.80L127.68-12Q127.68-14.84 126.84-16.04Q126-17.24 124.32-17.24L124.32-17.24Q123.36-17.24 122.32-16.68Q121.28-16.12 120.60-15.12L120.60-15.12Q121.08-13.68 121.08-11.12L121.08-11.12L121.08-0.80L123.08-0.80L123.08 0L112.68 0L112.68-0.80L115.08-0.80L115.08-12Q115.08-14.84 114.24-16.04Q113.40-17.24 111.72-17.24L111.72-17.24Q109.44-17.24 108.08-14.84L108.08-14.84L108.08-0.80L110.08-0.80L110.08 0L100.08 0L100.08-0.80L102.08-0.80L102.08-17.60L100.08-17.60L100.08-18.40L108.08-18.40L108.08-16.32Q108.84-17.36 110.46-18.10Q112.08-18.84 113.96-18.84L113.96-18.84Q118.72-18.84 120.16-16.16L120.16-16.16Q121.20-17.44 122.92-18.14Q124.64-18.84 126.56-18.84L126.56-18.84Q133.68-18.84 133.68-11.12L133.68-11.12Z M147.08-22.40L165.48-22.40L165.48-15.60L164.68-15.60Q164.68-19.16 163.26-20.38Q161.84-21.60 158.68-21.60L158.68-21.60L155.08-21.60L155.08-11.12L156.68-11.12Q159.56-11.12 160.32-11.84Q161.08-12.56 161.08-14.72L161.08-14.72L161.88-14.72L161.88-6.72L161.08-6.72Q161.08-8.96 160.32-9.64Q159.56-10.32 156.68-10.32L156.68-10.32L155.08-10.32L155.08-0.80L157.48-0.80L157.48 0L147.08 0L147.08-0.80L149.08-0.80L149.08-21.60L147.08-21.60L147.08-22.40Z M176.28-18.40L176.28-0.80L178.28-0.80L178.28 0L168.28 0L168.28-0.80L170.28-0.80L170.28-17.60L168.68-17.60L168.68-18.40L176.28-18.40ZM176.64-23.70Q176.64-22.24 175.62-21.22Q174.60-20.20 173.14-20.20Q171.68-20.20 170.64-21.22Q169.60-22.24 169.60-23.70Q169.60-25.16 170.64-26.20Q171.68-27.24 173.14-27.24Q174.60-27.24 175.62-26.20Q176.64-25.16 176.64-23.70Z M202.08-11.12L202.08-0.80L204.08-0.80L204.08 0L194.08 0L194.08-0.80L196.08-0.80L196.08-12Q196.08-14.84 195.24-16.04Q194.40-17.24 192.72-17.24L192.72-17.24Q190.44-17.24 189.08-14.84L189.08-14.84L189.08-0.80L191.08-0.80L191.08 0L181.08 0L181.08-0.80L183.08-0.80L183.08-17.60L181.08-17.60L181.08-18.40L189.08-18.40L189.08-16.32Q189.84-17.36 191.46-18.10Q193.08-18.84 194.96-18.84L194.96-18.84Q202.08-18.84 202.08-11.12L202.08-11.12Z M214.44 0.48L214.44 0.48Q211.20 0.48 208.84-2.08Q206.48-4.64 206.48-9.32Q206.48-14 208.80-16.64Q211.12-19.28 214.44-19.28L214.44-19.28Q216.08-19.28 217.52-18.60Q218.96-17.92 219.60-16.56L219.60-16.56L219.60-26L217.60-26L217.60-26.80L225.60-26.80L225.60-0.80L227.60-0.80L227.60 0L219.60 0L219.60-1.84Q218.52 0.48 214.44 0.48ZM219.60-8.76L219.60-8.76L219.60-15.36Q218.52-17.52 216.78-17.52Q215.04-17.52 213.80-15.52Q212.56-13.52 212.56-9.18Q212.56-4.84 213.84-2.84Q215.12-0.84 216.92-1.12L216.92-1.12Q217.92-1.28 218.44-1.76L218.44-1.76Q219.60-2.88 219.60-8.76Z M248.08-8L248.08-8L236-8Q236.40-0.96 241.48-0.96L241.48-0.96Q242.84-0.96 244.58-1.60Q246.32-2.24 247.12-3.40L247.12-3.40L247.68-3Q246.80-1.52 244.68-0.56Q242.56 0.40 240.46 0.40Q238.36 0.40 236.68-0.02Q235-0.44 233.40-1.44Q231.80-2.44 230.90-4.44Q230-6.44 230-9.28L230-9.28Q230-14.12 232.68-16.46Q235.36-18.80 239.18-18.80Q243-18.80 245.54-16.24Q248.08-13.68 248.08-8ZM235.96-9.24L235.96-8.80L242.48-8.80Q242.48-12.48 241.70-15.24Q240.92-18 239.20-18Q237.48-18 236.72-15.34Q235.96-12.68 235.96-9.24L235.96-9.24Z M261-0.80L261 0L251 0L251-0.80L253-0.80L253-17.60L251-17.60L251-18.40L259-18.40L259-13.64Q259.36-15.60 260.30-16.84Q261.24-18.08 262.38-18.48Q263.52-18.88 264.58-18.88Q265.64-18.88 266.62-18.50Q267.60-18.12 268.08-16.98Q268.56-15.84 268.12-14.70Q267.68-13.56 266.58-13.08Q265.48-12.60 264.56-12.96Q263.64-13.32 263.24-13.94Q262.84-14.56 262.68-15.12L262.68-15.12Q262.28-16.60 261.60-16.60L261.60-16.60Q260.84-16.60 259.92-13.98Q259-11.36 259-8.44L259-8.44L259-0.80L261-0.80Z"/></g>
</svg>
</g></svg></svg>